<svg xmlns="http://www.w3.org/2000/svg" width="216" height="102" viewBox="0 0 216 102">
  <g id="Group_43829" data-name="Group 43829" transform="translate(-375 -1805)">
    <rect id="Rectangle_4012" data-name="Rectangle 4012" width="216" height="102" rx="20" transform="translate(375 1805)" fill="rgba(255,255,255,0.1)" opacity="0"/>
    <g id="v2" transform="translate(413.117 1826.906)">
      <path id="Path_48257" data-name="Path 48257" d="M660.651,17.59c.529-.431.9-.924,1.4-1.292a5.67,5.67,0,0,1,3.965-1.048,5.1,5.1,0,0,1,3.177,1.311,5.3,5.3,0,0,1,1.486,2.717,8.92,8.92,0,0,1,.161,2.109q0,15.34.006,30.68a.619.619,0,0,1-.417.662c-1.6.729-3.2,1.478-4.8,2.218q-.456.212-.457-.288,0-15.885-.006-31.771a2.489,2.489,0,0,0-1.035-2.222,2.213,2.213,0,0,0-3.309,1.184,3.17,3.17,0,0,0-.184,1.017c.009,2.789,0,5.579.014,8.367,0,.325-.062.433-.412.429q-2.466-.03-4.932,0c-.347,0-.414-.1-.413-.429q.015-10.408,0-20.817c0-.37.1-.441.448-.438q2.466.028,4.932,0c.3,0,.38.077.378.378-.013,2.385-.007,4.769-.007,7.232Z" transform="translate(-601.852 -9.088)" fill="#fff"/>
      <path id="Exclusion_1" data-name="Exclusion 1" d="M12620.144,21395.889h-.014a.274.274,0,0,1-.205-.061.281.281,0,0,1-.038-.219c0-.027,0-.055,0-.082v-10.1q0-1.028,0-2.057c0-2.58,0-5.25-.012-7.883,0-.312.077-.395.375-.395l.022,0h3.243q.8,0,1.6,0c1.727,0,2.986.008,4.084.023a12.271,12.271,0,0,1,3.266.57c.226.066.453.148.646.221l.137.047.136.049c.027.063.062.092.109.092a.151.151,0,0,0,.057-.012,5.649,5.649,0,0,1,1.536.789.266.266,0,0,0,.232.156h.015a7.57,7.57,0,0,1,2.132,1.857,8.815,8.815,0,0,1,1.224,1.891,10.16,10.16,0,0,1,.854,2.932,9.719,9.719,0,0,1,.123,1.664,10.812,10.812,0,0,1-.413,3.063,8.414,8.414,0,0,1-1.086,2.436,8.747,8.747,0,0,1-1.771,2.145,10.632,10.632,0,0,1-2.346,1.551,11.1,11.1,0,0,1-2.729.914,21.049,21.049,0,0,1-3.082.332c-.884.045-1.838.066-3.094.066-.582,0-1.1,0-1.621-.008h-.186c-.382,0-.765,0-1.147,0C12621.368,21395.869,12620.734,21395.875,12620.144,21395.889Zm6.4-15.705-.441,0c-.295,0-.4.059-.4.383.016,1.219.014,2.447.012,3.637v.605c0,.2,0,.4,0,.605v.826c0,.277,0,.553,0,.828,0,1,0,2.168,0,3.314a.773.773,0,0,1-.006.08.243.243,0,0,0,.027.191.24.24,0,0,0,.183.055c.29-.006.585-.006.87-.006h.461a10.466,10.466,0,0,0,2.6-.246,4.643,4.643,0,0,0,3.335-2.582,5.7,5.7,0,0,0,.462-3.2,4.806,4.806,0,0,0-.892-2.385,5.186,5.186,0,0,0-3.8-2.014C12628.2,21380.215,12627.413,21380.184,12626.542,21380.184Z" transform="translate(-12597.314 -21348.977)" fill="#fff"/>
      <path id="Exclusion_4" data-name="Exclusion 4" d="M12628.446,21396.344h-.073a20.321,20.321,0,0,1-5.064-.684,16.749,16.749,0,0,1-2.133-.783l-.026-.012c-.177-.074-.359-.152-.541-.225-.12-.047-.182-.1-.207-.162a.362.362,0,0,1,.051-.283c.542-1.078,1.077-2.205,1.579-3.266.073-.154.141-.217.23-.217a.445.445,0,0,1,.215.078,10.233,10.233,0,0,0,3.646,1.277,11.39,11.39,0,0,0,1.466.135h.081a5.432,5.432,0,0,0,2.9-.725.178.178,0,0,0,.123-.039.142.142,0,0,0,.032-.111,3.08,3.08,0,0,0,1.036-1.7,5.839,5.839,0,0,0,.178-1.826,6.269,6.269,0,0,1-3.791,2.219c-.058-.053-.034-.1-.012-.148l0-.008a.183.183,0,0,0,.02-.055.29.29,0,0,0-.043.1.234.234,0,0,1-.049.109,8.179,8.179,0,0,1-1.212.094,6.677,6.677,0,0,1-3.97-1.281.224.224,0,0,1-.032-.145c0-.031-.011-.061-.019-.061l0,0a.122.122,0,0,0,0,.025.136.136,0,0,1-.026.15,4.466,4.466,0,0,1-1.3-1.271.1.1,0,0,1,0-.025.19.19,0,0,0,0-.023c-.01-.113-.04-.236-.193-.268a.058.058,0,0,0-.026-.006h0a.109.109,0,0,1-.022-.006,5.363,5.363,0,0,1-.936-1.8l0-.01a8.406,8.406,0,0,1-.419-3.49,7.633,7.633,0,0,1,1.46-4.113,6.626,6.626,0,0,1,4.07-2.551,7.6,7.6,0,0,1,1.468-.148,7.128,7.128,0,0,1,2.157.336,5.948,5.948,0,0,1,2.341,1.418c.033.031.065.063.1.1a1.26,1.26,0,0,0,.364.279c0-.062,0-.127,0-.189s0-.127,0-.191c0-.355,0-.723-.006-1.09,0-.117.012-.182.05-.219a.248.248,0,0,1,.19-.057.046.046,0,0,1,.022,0c.755,0,1.65.006,2.566.006,1,0,1.813,0,2.562-.014a.323.323,0,0,1,.237.068.3.3,0,0,1,.041.232c0,.031,0,.063,0,.092v9.451c0,.3,0,.607,0,.91,0,.705.006,1.436-.009,2.16a10.048,10.048,0,0,1-.772,3.84.283.283,0,0,0-.018.051c-.014.049-.026.094-.085.109a.258.258,0,0,0-.063-.01c-.07,0-.112.049-.13.15a.2.2,0,0,0,.038.182,4.923,4.923,0,0,1-1.874,2.025.793.793,0,0,0-.126.035l-.021.008a.506.506,0,0,1-.152.033.268.268,0,0,1-.151-.049.24.24,0,0,0-.132-.041.309.309,0,0,0-.244.158.288.288,0,0,1,.215.066.215.215,0,0,1,.043.17,7.717,7.717,0,0,1-2.905.988A16.6,16.6,0,0,1,12628.446,21396.344Zm-1.529-16.326c-.159,0-.235.113-.295.238-.078.09-.166.18-.249.262l-.01.01a2.44,2.44,0,0,0-.45.549,3.087,3.087,0,0,0-.344,2.289,2.829,2.829,0,0,0,.994,1.588,3.374,3.374,0,0,0,2.173.732c.112,0,.228,0,.345-.012a2.951,2.951,0,0,0,2-.908,3.057,3.057,0,0,0,.8-2.566,2.876,2.876,0,0,0-1.007-1.854,3.109,3.109,0,0,0-1.925-.752h-.119a4.108,4.108,0,0,0-1.895.426A.091.091,0,0,0,12626.917,21380.018Z" transform="translate(-12516.384 -21344.666)" fill="#fff"/>
      <path id="Exclusion_2" data-name="Exclusion 2" d="M12642.683,21396.041h-2.75c-.31,0-.619,0-.929,0l-.465,0h-.464c-.348,0-.651,0-.929,0h-.028c-.2,0-.29-.066-.369-.279-.257-.678-.536-1.361-.806-2.021-.134-.326-.271-.66-.4-.99a.6.6,0,0,0-.635-.441h-.015c-1.024.01-2.17.016-3.6.016-1.229,0-2.275,0-3.393-.01a.519.519,0,0,0-.6.414c-.222.621-.48,1.246-.73,1.85l-.018.041-.043.1c-.153.371-.312.756-.461,1.137-.055.135-.1.182-.241.182h-1.9q-.949,0-1.9,0t-1.9,0c-.118,0-.18-.018-.205-.057s-.009-.119.039-.232c1.041-2.43,1.925-4.51,2.781-6.541.417-.99.836-2,1.241-2.969.459-1.1.949-2.277,1.428-3.41.38-.906.77-1.811,1.169-2.736l.037-.086c.235-.545.479-1.109.716-1.666.408-.957.817-1.945,1.219-2.937a.437.437,0,0,1,.479-.312c.813,0,1.654.008,2.485.008s1.673,0,2.486-.008a.391.391,0,0,1,.425.273l.513,1.227.108.258c.826,1.979,1.682,4.021,2.525,6.029l1,2.363.5,1.176.563,1.334q.618,1.462,1.234,2.924.523,1.233,1.05,2.467l.338.795.711,1.672.006.014c.086.205.129.309.1.359S12642.892,21396.039,12642.683,21396.041Zm-11.255-13.928h0c-.06.16-.12.307-.179.447l-.025.061,0,.012a4.646,4.646,0,0,0-.28.789c.028.084-.024.127-.08.162-.048.018-.062.041-.05.082l0,0-.255.648-.327.83c-.343.869-.693,1.756-1.045,2.645h4.15c.021,0,.043,0,.065,0l.036,0h.034c.044,0,.106,0,.134-.043s.02-.1-.018-.2l-.112-.281q-.281-.706-.562-1.416l-.58-1.457-.581-1.457h0a.958.958,0,0,1-.175.125.561.561,0,0,0-.287.3.487.487,0,0,1-.05.117c-.011.02-.021.039-.03.059-.016.045.019.088.052.127l0,.006c.032.037.059.07.054.105a.112.112,0,0,1-.056.068.157.157,0,0,1-.089.033c-.063,0-.106-.062-.142-.111l-.006-.008a.284.284,0,0,0-.092-.092.213.213,0,0,0-.075-.01h-.043a.165.165,0,0,1,.112-.051.3.3,0,0,1,.165.074l.023.014.017.012c.032-.482.142-.619.617-.773l-.06-.166c-.066-.168-.148-.379-.257-.666Z" transform="translate(-12618.971 -21373.473)" fill="#fff"/>
      <path id="Path_48261" data-name="Path 48261" d="M1076.159,376.194a9.986,9.986,0,0,1,1.709-.751,5.872,5.872,0,0,1,4.695.68,4.727,4.727,0,0,1,2,2.935,8.746,8.746,0,0,1,.255,2.29q-.019,4.991,0,9.981c0,.317-.087.391-.4.388q-2.465-.024-4.931,0c-.291,0-.349-.084-.348-.36.01-2.653.018-5.308,0-7.961a4.9,4.9,0,0,0-.306-1.828,2.218,2.218,0,0,0-2.23-1.216,2.392,2.392,0,0,0-1.994,2.513c.033,2.8.006,5.6.018,8.4,0,.328-.04.457-.424.451-1.656-.027-3.314-.018-4.971,0-.271,0-.361-.049-.361-.345q.016-7.7,0-15.4c0-.323.1-.364.384-.362,1.671.013,3.341.017,5.011,0,.325,0,.37.1.36.385a15.1,15.1,0,0,0,.031,1.63c.327-.53.878-.818,1.269-1.272a.273.273,0,0,1,.232-.159Z" transform="translate(-982.343 -344.805)" fill="#fff"/>
      <path id="Path_48262" data-name="Path 48262" d="M1077.638,77.348a5.805,5.805,0,0,1,3.977-2.415c2.526-.241,4.811.566,5.849,3.382a6.034,6.034,0,0,1,.36,2.069c.009,3.5,0,7.006.014,10.508,0,.367-.1.441-.448.437-1.617-.019-3.234-.017-4.851,0-.3,0-.381-.078-.379-.382.013-2.654.03-5.308-.007-7.962a3.664,3.664,0,0,0-.538-2.171,2.228,2.228,0,0,0-3.1-.352,2.5,2.5,0,0,0-.879,2.015c0,2.816,0,5.632.006,8.447,0,.3-.057.41-.39.407-1.657-.019-3.315-.015-4.972,0-.276,0-.395-.032-.394-.361q.018-7.7,0-15.4c0-.254.054-.344.328-.341q2.546.019,5.093,0c.28,0,.336.1.329.347-.016.564,0,1.128,0,1.778Z" transform="translate(-985.119 -68.752)" fill="#fff"/>
      <path id="Path_48263" data-name="Path 48263" d="M304.165,93.087a7.524,7.524,0,0,1-1.74,1.458,5.053,5.053,0,0,1-2.631.821,6.588,6.588,0,0,1-2.852-.454,4.634,4.634,0,0,1-2.475-2.561,7.016,7.016,0,0,1-.494-2.767q.019-5.112,0-10.223c0-.34.091-.424.425-.42q2.425.027,4.849,0c.315,0,.4.074.4.4-.014,2.775-.009,5.549-.006,8.323a3.652,3.652,0,0,0,.285,1.4,2.122,2.122,0,0,0,2.524,1.183,2.351,2.351,0,0,0,1.714-2.286q.021-4.283,0-8.566c0-.341.06-.454.433-.449,1.643.024,3.287.017,4.93,0,.282,0,.395.04.394.365q-.016,7.7,0,15.395c0,.255-.057.345-.332.343q-2.546-.019-5.092,0c-.275,0-.339-.087-.33-.344.018-.538.006-1.076.006-1.614Z" transform="translate(-270.11 -72.47)" fill="#fff"/>
      <path id="Exclusion_5" data-name="Exclusion 5" d="M12628.536,21391.945c-.155,0-.29-.006-.411-.014a8.708,8.708,0,0,1-5.595-2.082,7.69,7.69,0,0,1-2.556-4.934,9.211,9.211,0,0,1,.93-5.664,7.936,7.936,0,0,1,7.063-4.16c.3,0,.6.016.914.041a7.3,7.3,0,0,1,4.982,2.283,8.256,8.256,0,0,1,1.97,3.939,13.04,13.04,0,0,1,.226,3.307.469.469,0,0,1-.3.088q-.064,0-.126-.006l-.041,0c-.027,0-.056,0-.083,0q-.716,0-1.432,0l-.717,0h-.713l-.715,0h-.713c-1.755,0-3.57,0-5.348.016l.709-.006c1.751,0,3.263-.01,4.688-.01,1.532,0,3.042.006,4.616.016.111.02.135.107.157.191l0,.01c0,.01,0,.02.008.029a.2.2,0,0,1-.182.1.783.783,0,0,1-.113-.012l-.021,0a.439.439,0,0,0-.087-.01c-2.269.006-4.364.008-5.411.008h-2.165l-1.081,0h-1.57a3.217,3.217,0,0,0,2.728,2.527,5.077,5.077,0,0,0,.622.037,4.458,4.458,0,0,0,3.185-1.342.571.571,0,0,1,.379-.2.646.646,0,0,1,.384.189c.314.266.64.539.968.813l.2.164a1.676,1.676,0,0,1,.8.654,1.174,1.174,0,0,0,.433.395c.033.02.066.041.1.063.147.1.221.189.225.283s-.058.186-.187.291a1.21,1.21,0,0,1-.649.73c-.214.148-.425.311-.585.434l-.033.025a8.811,8.811,0,0,1-1.068.732,8.312,8.312,0,0,1-2.6.908A11.254,11.254,0,0,1,12628.536,21391.945Zm2-9.787.031,0h.03a.138.138,0,0,0,.114-.037.182.182,0,0,0,.01-.154l-.026-.107,0-.01a3.707,3.707,0,0,0-.509-1.316,1.743,1.743,0,0,1-.16-.221.848.848,0,0,0-.489-.424,2.125,2.125,0,0,0-1.433-.559,2.627,2.627,0,0,0-.752.113,3.173,3.173,0,0,0-2.024,2.5.191.191,0,0,0,.013.162.216.216,0,0,0,.168.047h3.412c.26,0,.521,0,.781,0s.521,0,.78,0h0a.539.539,0,0,1,.056,0Z" transform="translate(-12549.859 -21368.969)" fill="#fff"/>
      <path id="Path_48265" data-name="Path 48265" d="M1526.053,79.848c-.784.586-1.571,1.169-2.349,1.764-.128.1-.163.1-.265-.039a3.7,3.7,0,0,0-2.209-1.519,3.151,3.151,0,0,0-3.342,1.7,4.335,4.335,0,0,0-.23,3.032A3.2,3.2,0,0,0,1518.3,86a2.28,2.28,0,0,1,.727.657,3.207,3.207,0,0,0,3.985-.478c.078-.074.154-.15.23-.226.463-.457.471-.47.967-.115,1.053.755,2.093,1.528,3.144,2.285.123.089.2.108.073.283a8.29,8.29,0,0,1-2.609,2.464,7.792,7.792,0,0,1-2.676.945,10.8,10.8,0,0,1-2.073.159,8.45,8.45,0,0,1-4.928-1.744,8.009,8.009,0,0,1-3.118-5.295,8.289,8.289,0,0,1,1.8-6.721,8.17,8.17,0,0,1,4.863-2.86,9.262,9.262,0,0,1,3.807.026,7.6,7.6,0,0,1,2.9,1.228,7.792,7.792,0,0,1,1.966,2.065c.075.112.11.145-.032.235-.246.155-.466.351-.7.531a.839.839,0,0,1-.572.41Z" transform="translate(-1389.555 -69.008)" fill="#fff"/>
      <path id="Path_48266" data-name="Path 48266" d="M1279.764,41.036c0-1.01-.01-2.02.007-3.03,0-.29-.051-.409-.37-.385-.4.031-.808,0-1.212.011-.19,0-.292-.023-.29-.256.01-1.36.008-2.721,0-4.081,0-.206.056-.288.274-.28.4.015.81-.02,1.211.012.338.027.388-.114.384-.408-.015-1.091,0-2.182-.015-3.272-.006-.3.073-.38.378-.377q2.5.024,5.011,0c.323,0,.37.106.367.389-.014,1.1,0,2.209-.012,3.312,0,.288.08.36.361.355,1.01-.016,2.02,0,3.03-.013.268,0,.343.074.34.339-.012,1.32-.015,2.64,0,3.959,0,.286-.105.324-.349.322-1.01-.011-2.021.006-3.03-.012-.29-.006-.355.081-.353.36.013,1.71.006,3.421.006,5.131,0,1.208.894,1.575,1.822,1.441a4.837,4.837,0,0,0,1.555-.443c.137-.071.272-.079.269.185-.016,1.333-.013,2.666,0,4a.372.372,0,0,1-.269.387,8.9,8.9,0,0,1-4.443.737,5.061,5.061,0,0,1-3.152-1.155,4.289,4.289,0,0,1-1.354-2.571,29.834,29.834,0,0,1-.168-4.657Z" transform="translate(-1174.469 -26.542)" fill="#fff"/>
      <path id="Path_48267" data-name="Path 48267" d="M502.144,33.034c.431,0,.863-.027,1.292-.008.272.011.336-.083.332-.342-.014-1.118,0-2.237-.011-3.355,0-.28.066-.361.356-.359,1.671.015,3.342.019,5.012,0,.341,0,.389.114.385.411-.016,1.1,0,2.209-.014,3.314,0,.269.08.336.337.332,1.024-.013,2.048,0,3.072-.011.236,0,.327.044.323.307q-.021,2,0,4c0,.257-.078.314-.32.311-1.024-.013-2.048,0-3.072-.011-.258,0-.342.061-.34.332.012,1.724-.012,3.449.013,5.174.017,1.165.766,1.549,1.832,1.423a7.094,7.094,0,0,0,1.8-.526v2.239c0,.66-.014,1.321.007,1.981a.426.426,0,0,1-.3.454,8.955,8.955,0,0,1-4.37.724,5.294,5.294,0,0,1-2.848-.881c-.139-.1-.268-.217-.4-.326a.627.627,0,0,1-.409-.407,6.133,6.133,0,0,1-.993-3.292c-.116-2.161-.022-4.319-.053-6.479,0-.333-.079-.441-.418-.417-.428.029-.859,0-1.289-.006a.582.582,0,0,1-.079-.423q0-1.849,0-3.7c0-.167-.048-.359.157-.46Z" transform="translate(-461.299 -26.542)" fill="#fff"/>
      <path id="Path_48268" data-name="Path 48268" d="M885.667,321.751c0,3.476-.006,6.952.008,10.428,0,.336-.078.418-.415.414-1.671-.019-3.342-.015-5.012,0-.268,0-.328-.074-.328-.332q.011-10.509,0-21.017c0-.263.065-.332.33-.331q2.526.018,5.053,0c.3,0,.373.074.372.375-.012,3.49-.007,6.978-.007,10.468Z" transform="translate(-808.674 -285.681)" fill="#fff"/>
      <path id="Path_48269" data-name="Path 48269" d="M547.784,376.592a3.492,3.492,0,0,1,1.858-.639,3.358,3.358,0,0,0,.835-.072c.208-.082.231.07.23.241-.006.633,0,1.266,0,1.9,0,1.159-.014,2.318.009,3.477.006.342-.055.472-.43.444a4.755,4.755,0,0,0-2.235.383,3.539,3.539,0,0,0-1.953,2.089,7.873,7.873,0,0,0-.487,2.962c0,1.523-.008,3.046.009,4.568,0,.292-.083.348-.357.345q-2.466-.021-4.932,0c-.283,0-.387-.04-.387-.363q.018-7.7,0-15.4c0-.249.043-.341.322-.339q2.506.022,5.013,0c.307,0,.341.1.336.366-.015.862-.006,1.724-.006,2.674a3.767,3.767,0,0,1,.645-1.1c.165-.006.219-.083.156-.239a3.147,3.147,0,0,1,1.379-1.3.446.446,0,0,1,.044.222.331.331,0,0,0-.048-.218Z" transform="translate(-496.188 -345.378)" fill="#fff"/>
      <path id="Path_48270" data-name="Path 48270" d="M980.667,387.95c0,2.559-.006,5.118.008,7.676,0,.3-.067.379-.371.377q-2.526-.024-5.051,0c-.265,0-.332-.07-.332-.334q.012-7.716,0-15.433c0-.26.061-.337.33-.335,1.684.013,3.367.015,5.051,0,.3,0,.375.075.373.375C980.661,382.833,980.667,385.392,980.667,387.95Z" transform="translate(-895.991 -349.092)" fill="#fff"/>
      <path id="Path_48271" data-name="Path 48271" d="M1439.517,87.03c0,2.546,0,5.092.006,7.637,0,.3-.05.412-.387.408-1.643-.019-3.287-.016-4.931,0-.286,0-.356-.078-.356-.359q.013-7.678,0-15.356c0-.288.05-.393.37-.39q2.465.027,4.931,0c.311,0,.374.088.372.383C1439.512,81.911,1439.517,84.47,1439.517,87.03Z" transform="translate(-1317.807 -72.499)" fill="#fff"/>
      <path id="Path_48272" data-name="Path 48272" d="M682.937,387.95c0-2.559.006-5.118-.007-7.677,0-.3.068-.378.373-.374,1.657.017,3.314.015,4.97,0,.268,0,.331.075.33.335q-.011,7.718,0,15.435c0,.268-.073.333-.335.332q-2.5-.018-5.011,0c-.268,0-.328-.074-.327-.334.01-2.573.006-5.145.006-7.718Z" transform="translate(-627.615 -349.092)" fill="#fff"/>
      <path id="Path_48273" data-name="Path 48273" d="M1434.856,14.238c-.889,0-1.778-.008-2.666.006-.24,0-.324-.05-.32-.309q.022-1.8,0-3.6c0-.258.079-.311.319-.31q2.666.015,5.333,0c.254,0,.349.054.346.329q-.022,1.777,0,3.554c0,.274-.09.334-.345.33-.889-.015-1.777-.006-2.666-.006Z" transform="translate(-1315.986 -9.135)" fill="#fff"/>
      <path id="Path_48274" data-name="Path 48274" d="M976.881,315.141c-.889,0-1.778-.008-2.666.006-.232,0-.288-.068-.286-.291q.016-1.817,0-3.635c0-.237.074-.29.3-.289q2.666.012,5.332,0c.235,0,.286.074.284.3q-.016,1.817,0,3.635c0,.233-.069.288-.3.285-.889-.014-1.777-.006-2.666-.006v0Z" transform="translate(-895.081 -285.701)" fill="#fff"/>
      <path id="Path_48275" data-name="Path 48275" d="M684.948,310.954c.875,0,1.751.008,2.625-.006.231,0,.291.065.289.291q-.016,1.817,0,3.634c0,.229-.065.29-.292.289q-2.666-.013-5.332,0c-.228,0-.292-.062-.289-.292q.017-1.817,0-3.634c0-.232.067-.29.293-.287.9.012,1.8,0,2.706,0Z" transform="translate(-626.713 -285.717)" fill="#fff"/>
      <path id="Path_48276" data-name="Path 48276" d="M1557.037,505.585a1.168,1.168,0,0,0-1.315-.242,1.3,1.3,0,0,0-.783,1.269c0,1-.015,1.993.006,2.989.007.294-.082.374-.357.343-.33-.036-.785.141-.962-.065s-.062-.637-.062-.97c0-1.508.006-3.016-.01-4.524,0-.284.07-.392.353-.349a1.825,1.825,0,0,0,.282,0q.741,0,.752.776a2.288,2.288,0,0,1,2.407-.777,1.811,1.811,0,0,1,1.382,1.59,38.162,38.162,0,0,1,.09,4.06c.006.181-.027.268-.235.258a8.606,8.606,0,0,0-.969,0c-.229.015-.259-.085-.258-.28.008-1.023,0-2.047.007-3.07a1.641,1.641,0,0,0-.256-.937c.008-.058-.016-.082-.074-.074Z" transform="translate(-1427.81 -463.118)" fill="#fff"/>
      <path id="Path_48277" data-name="Path 48277" d="M782.139,637.335v.324c0,.988-.01.965-.911,1.367-1.494.669-2.972,1.372-4.457,2.06l-1.534.708c-.223.1-.3.044-.3-.212.014-.673.009-1.346,0-2.019a.316.316,0,0,1,.217-.335q2.94-1.361,5.875-2.737c.28-.13.563-.253.843-.383.188-.087.273-.042.268.177-.009.35,0,.7,0,1.05Z" transform="translate(-712.181 -584.544)" fill="#fff"/>
      <path id="Path_48278" data-name="Path 48278" d="M782.166,590.44c0,.86,0,1.64,0,2.42,0,.224-.17.252-.308.316q-2.737,1.273-5.476,2.541c-.353.163-.712.315-1.057.494-.307.159-.368.047-.361-.251.014-.619.015-1.24,0-1.859a.428.428,0,0,1,.3-.455c1.549-.711,3.092-1.433,4.637-2.152l2.265-1.054Z" transform="translate(-712.208 -542.606)" fill="#fff"/>
      <path id="Path_48279" data-name="Path 48279" d="M782.149,547.749v.081c0,1.2,0,1.193-1.081,1.689-1.182.543-2.361,1.1-3.54,1.645-.766.357-1.534.709-2.3,1.076-.212.1-.286.078-.283-.17.009-.674.013-1.347,0-2.02a.371.371,0,0,1,.264-.391q2.285-1.054,4.564-2.12c.693-.324,1.385-.653,2.069-1,.255-.128.324-.081.309.2-.018.336,0,.674,0,1.01Z" transform="translate(-712.191 -502.197)" fill="#fff"/>
      <path id="Path_48280" data-name="Path 48280" d="M1628.411,504.042a2.983,2.983,0,0,1,2.451.856c.129.133.175.226.01.349a1.153,1.153,0,0,0-.115.113c-.2.2-.375.493-.614.562-.224.065-.386-.3-.615-.414a1.625,1.625,0,0,0-2.479,1.305,1.7,1.7,0,0,0,1.231,2,1.582,1.582,0,0,0,1.661-.467c.2-.2.326-.225.493,0a1.868,1.868,0,0,0,.2.2c.478.475.46.551-.072.962a3.246,3.246,0,0,1-4.151-.324.626.626,0,0,0-.093-.071.44.44,0,0,1-.247-.33,4.341,4.341,0,0,1-.429-1.53,3.036,3.036,0,0,1,.661-2.133,2.985,2.985,0,0,1,2.027-1.084c.079.076,0,.142-.012.213C1628.362,504.19,1628.357,504.1,1628.411,504.042Z" transform="translate(-1494.085 -463.187)" fill="#fff"/>
      <path id="Path_48281" data-name="Path 48281" d="M1524.8,485.382c0,1.185-.007,2.37.006,3.555,0,.246-.052.335-.308.309-.371-.038-.865.151-1.087-.071s-.063-.714-.064-1.087c-.006-2.087,0-4.175-.01-6.263,0-.281.063-.383.351-.351.357.04.832-.148,1.048.07s.057.689.061,1.049c.008.929,0,1.858,0,2.788Z" transform="translate(-1400.015 -442.419)" fill="#fff"/>
      <path id="Path_48282" data-name="Path 48282" d="M1698.447,558.76a.715.715,0,0,1-.811.806.643.643,0,0,1-.725-.729q0-.887.85-.887.686,0,.686.81Z" transform="translate(-1559.593 -512.744)" fill="#fff"/>
      <path id="Path_48283" data-name="Path 48283" d="M944.565,193.169l-.063-.158a.824.824,0,0,0-.435-.04q-4.821,0-9.641,0a.879.879,0,0,1-.436-.037c.075-.16.218-.077.325-.077q5.126-.007,10.253,0c0,.107,0,.213,0,.319Z" transform="translate(-858.371 -177.154)" fill="#fff"/>
      <path id="Path_48284" data-name="Path 48284" d="M501.262,79.081a.77.77,0,0,0-.078.468v4.112c-.173.036-.161-.084-.161-.192,0-1.4,0-2.792,0-4.189,0-.186.071-.243.243-.2Z" transform="translate(-460.416 -72.589)" fill="#fff"/>
      <path id="Path_48294" data-name="Path 48294" d="M618.134,400.941c.088.052.237.108.175.215a.187.187,0,0,1-.331.023.221.221,0,0,1,.156-.239Z" transform="translate(-567.915 -368.432)" fill="#fff"/>
      <path id="Path_48299" data-name="Path 48299" d="M1296.12,525.19c-.115-.083-.233-.164-.24-.326l.012-.008c.276-.04.3.105.24.32l-.011.015Z" transform="translate(-1190.995 -482.32)" fill="#fff"/>
      <path id="Path_48303" data-name="Path 48303" d="M466.3,344.058c-.2.094-.261.055-.243-.158A.225.225,0,0,1,466.3,344.058Z" transform="translate(-428.274 -316.004)" fill="#fff"/>
      <path id="Path_48306" data-name="Path 48306" d="M444.517,333.268c-.042.066-.094.155-.175.117-.1-.049-.011-.129.01-.2Z" transform="translate(-408.277 -306.161)" fill="#fff"/>
      <path id="Path_48308" data-name="Path 48308" d="M450.558,339.049c-.178.158-.3.074-.427-.011a.221.221,0,0,1-.086-.213c.011-.137.082-.026.126-.032.083-.013.2-.149.179.086C450.346,338.926,450.48,338.988,450.558,339.049Z" transform="translate(-413.563 -311.263)" fill="#fff"/>
      <path id="Path_48309" data-name="Path 48309" d="M413.7,567.72l-.417.4c-.018-.032-.058-.074-.049-.1.072-.167.21-.243.466-.3Z" transform="translate(-379.73 -521.724)" fill="#fff"/>
      <path id="Path_48310" data-name="Path 48310" d="M504.28,389.707c.076-.092.114-.218.248-.21.031,0,.094.13.076.159-.074.119-.194.091-.324.051Z" transform="translate(-463.412 -357.913)" fill="#fff"/>
      <path id="Path_48318" data-name="Path 48318" d="M1286.061,445.481a.387.387,0,0,1,0-.381Z" transform="translate(-1181.924 -409.02)" fill="#fff"/>
      <path id="Path_48325" data-name="Path 48325" d="M489.44,81.216V96.524h-.04V81.2Z" transform="translate(-449.736 -74.549)" fill="#fff"/>
      <path id="Path_48327" data-name="Path 48327" d="M934,193.924q5.026,0,10.052,0c.154,0,.326-.061.459.078q-5.026,0-10.052,0C934.306,194,934.133,194.063,934,193.924Z" transform="translate(-858.38 -178.147)" fill="#fff"/>
      <path id="Path_48329" data-name="Path 48329" d="M1302.322,137.11v6.362h-.032V137.11Z" transform="translate(-1196.886 -125.938)" fill="#fff"/>
      <path id="Path_48330" data-name="Path 48330" d="M593.28,143.018V137.3h.034v5.718Z" transform="translate(-545.215 -126.112)" fill="#fff"/>
      <path id="Path_48331" data-name="Path 48331" d="M636.634,384.884c.257.12.062.3.058.447a.5.5,0,0,1-.054-.451Z" transform="translate(-585.039 -353.67)" fill="#fff"/>
      <path id="Path_48336" data-name="Path 48336" d="M1652.743,508.483a.378.378,0,0,1-.1.079c-.044.017-.077-.018-.053-.063a.242.242,0,0,1,.093-.108c.039-.018.067.021.059.093Z" transform="translate(-1518.851 -467.189)" fill="#fff"/>
    </g>
  </g>
</svg>
