<svg xmlns="http://www.w3.org/2000/svg" width="216" height="102" viewBox="0 0 216 102">
  <g id="Group_43823" data-name="Group 43823" transform="translate(-693 -1937)">
    <rect id="Rectangle_6519" data-name="Rectangle 6519" width="216" height="102" rx="20" transform="translate(693 1937)" fill="rgba(255,255,255,0.1)" opacity="0"/>
    <g id="Layer_1-2" transform="translate(517.493 1863.3)">
      <path id="Path_88778" data-name="Path 88778" d="M34.065,12.939a14.2,14.2,0,0,1-3.494.964,45.969,45.969,0,0,1-8.176.455c-2.758-.028-5.518-.117-8.276-.115a16.985,16.985,0,0,0-4.628.515A19.512,19.512,0,0,0,5.5,16.2a10.039,10.039,0,0,0-4.241,3.9c-.231.412-.4.856-.6,1.284l.086.063a2.2,2.2,0,0,0,.278-.154,7.929,7.929,0,0,1,4.013-1.356,50.2,50.2,0,0,1,8.722.029,39.057,39.057,0,0,0,8.41-.1,17.755,17.755,0,0,0,6.213-2.229A21.289,21.289,0,0,0,33.554,13.7c.178-.193.343-.4.524-.607A17.3,17.3,0,0,1,.823,22.58a17.311,17.311,0,1,1,33.24-9.641ZM3.372,26.269l.122.117a7.338,7.338,0,0,1,3.8-1.025c2.034-.032,4.071.063,6.1.167a18.884,18.884,0,0,0,4.046-.042,13.416,13.416,0,0,0,8.138-4.55.657.657,0,0,0,.08-.141c-.8.212-1.579.487-2.383.621a46.8,46.8,0,0,1-8.715.28,21.4,21.4,0,0,0-5.913.516,7.8,7.8,0,0,0-4.264,2.534c-.383.471-.679,1.013-1.015,1.523ZM8.347,13.638c.493-.225.892-.447,1.318-.6a12.623,12.623,0,0,1,4.649-.53c1.782.063,3.561.206,5.344.268A13.612,13.612,0,0,0,30.288,8.469c.123-.126.226-.273.4-.489-.684.2-1.244.378-1.815.516a25.946,25.946,0,0,1-6.226.474c-2.414-.005-4.833-.055-7.24.1a8.721,8.721,0,0,0-5.67,2.444A5.418,5.418,0,0,0,8.347,13.638Z" transform="translate(219.973 107.316)" fill="#fff"/>
      <path id="Path_88779" data-name="Path 88779" d="M109.818,368.96h6.388c-3.815,2.236-3.728,6.24-5.092,9.442-1.525,3.59-2.64,7.354-3.984,11.025-.135.367-.616.855-.919.842-.323-.013-.764-.5-.909-.876-1.7-4.459-3.354-8.934-5.024-13.4-.108-.286-.253-.559-.5-1.1-.97,2.593-1.852,4.923-2.714,7.26-.852,2.317-1.66,4.647-2.546,6.954a5.422,5.422,0,0,1-.926,1.222c-.34-.387-.825-.721-.993-1.172-1.852-4.927-3.633-9.883-5.482-14.81-.754-2.014-1.357-4.169-3.734-5.092.061-.094.125-.189.185-.286H93.991c-.074.2-.081.313-.131.337-1.923.906-1.946.913-1.189,2.973.95,2.586,1.936,5.162,2.913,7.735.111.289.283.556.566,1.1.667-1.865,1.246-3.472,1.822-5.081.138-.387.246-.785.4-1.165,1.061-2.674.61-3.96-1.886-5.4-.088-.051-.121-.2-.279-.485h10.607c-.152.216-.192.35-.276.381-1.845.694-1.967.926-1.31,2.748q1.359,3.773,2.755,7.533c.148.4.34.788.653,1.505.4-1.091.694-1.879.98-2.674.68-1.9,1.381-3.785,2.02-5.7.694-2.064.488-2.478-1.468-3.388-.094-.044-.148-.172-.354-.424Z" transform="translate(199.616 -254.7)" fill="#fff"/>
      <path id="Path_88780" data-name="Path 88780" d="M187.2,377.858a13.217,13.217,0,0,1,2.313-7.445,9.355,9.355,0,0,1,11.857-2.926,4.812,4.812,0,0,1,2.818,4.193,2.465,2.465,0,0,1-1.731,2.674,2.815,2.815,0,0,1-3.448-1.179,8.838,8.838,0,0,1-.677-2.091c-.131-.515-.034-1.145-.3-1.559-.387-.606-.956-1.4-1.546-1.492a2.547,2.547,0,0,0-1.946.923c-1.327,1.664-1.468,3.735-1.394,5.758.118,3.209.69,6.344,2.906,8.846a4.746,4.746,0,0,0,7.031.31,8.016,8.016,0,0,1,1.428-.815,7.1,7.1,0,0,1-.613,1.576,8.939,8.939,0,0,1-9.57,3.839,9.474,9.474,0,0,1-6.873-8.035c-.125-.852-.172-1.717-.256-2.576Z" transform="translate(130.757 -253.035)" fill="#fff"/>
      <path id="Path_88781" data-name="Path 88781" d="M254.042,374.594a19.615,19.615,0,0,0,2.024,7.445c1.977,3.734,5.4,4.344,8.526,1.546a4.042,4.042,0,0,1,.983-.482,3.25,3.25,0,0,1-.2,1.067c-2.714,4.674-8.9,6.115-13.005,2.943-2.805-2.165-3.886-5.263-3.96-8.691a12.367,12.367,0,0,1,3.435-9.351,9.292,9.292,0,0,1,11.581-.913,4.481,4.481,0,0,1,1.869,3.209c.168,1.664-.546,2.785-1.95,3.1a2.819,2.819,0,0,1-3.566-2.01,19.586,19.586,0,0,1-.394-2.182c-.189-1.061-.515-2.074-1.751-2.256a2.143,2.143,0,0,0-2.364,1.61c-.546,1.61-.835,3.307-1.232,4.967Z" transform="translate(90.161 -253.101)" fill="#fff"/>
      <path id="Path_88782" data-name="Path 88782" d="M47.426,373.733a13.7,13.7,0,0,0-.737-1.155A26.926,26.926,0,0,0,43.7,368.9a3.8,3.8,0,0,0-2.637-.677,2.415,2.415,0,0,0-1.721,1.293,2.376,2.376,0,0,0,.471,2.071,39.468,39.468,0,0,0,3.644,2.926,38.591,38.591,0,0,1,3.731,3.014,6.362,6.362,0,0,1,.909,7.944,6.643,6.643,0,0,1-7.287,3.149c-.441-.1-.872-.239-1.307-.364-1.334-.38-2.741-1.4-3.765.8l-.374-.333q-.182-3.637-.36-7.274l.421-.152a8.423,8.423,0,0,1,.65,1.095,8.194,8.194,0,0,0,4.155,4.526,2.821,2.821,0,0,0,3.751-.771,2.736,2.736,0,0,0-.849-3.61c-2.037-1.66-4.226-3.145-6.21-4.866-2.593-2.249-2.906-5.54-1.014-8.6,1.384-2.239,4.728-3.132,7.617-2.027a9.16,9.16,0,0,1,1.017.448,1.43,1.43,0,0,0,2.051-.441,1.493,1.493,0,0,1,.663-.411.777.777,0,0,1,.3.448c.114,2.158.2,4.317.3,6.476-.145.054-.29.1-.438.158Z" transform="translate(231.903 -253.119)" fill="#fff"/>
    </g>
  </g>
</svg>
